<?xml version="1.0" encoding="UTF-8"?> <svg xmlns="http://www.w3.org/2000/svg" width="241" height="70" viewBox="0 0 241 70" fill="none"> <path d="M74.3906 43.1632H77.745V36.5157H84.4538V43.1632H87.8083V26.8359H84.4538V33.2502H77.745V26.8359H74.3906V43.1632Z" fill="#1E2532"></path> <path d="M91.8398 43.1632H103.692V39.8977H95.1942V36.399H101.68V33.2502H95.1942V30.1014H103.469V26.8359H91.8398V43.1632Z" fill="#1E2532"></path> <path d="M106.711 43.1632H117.333V39.8977H110.065V26.8359H106.711V43.1632Z" fill="#1E2532"></path> <path d="M119.789 43.1632H130.412V39.8977H123.144V26.8359H119.789V43.1632Z" fill="#1E2532"></path> <path d="M139.471 43.5134C144.279 43.5134 147.969 39.6648 147.969 34.9998C147.969 30.3349 144.279 26.4863 139.471 26.4863C134.663 26.4863 130.973 30.3349 130.973 34.9998C130.973 39.6648 134.663 43.5134 139.471 43.5134ZM139.471 40.2479C136.675 40.2479 134.439 37.9154 134.439 34.9998C134.439 32.0843 136.675 29.7518 139.471 29.7518C142.266 29.7518 144.502 32.0843 144.502 34.9998C144.502 37.9154 142.266 40.2479 139.471 40.2479Z" fill="#1E2532"></path> <path d="M158.459 43.1632H161.702L164.878 32.5505H165.012L168.187 43.1632H171.43L176.573 26.8359H173.107L169.864 37.7985H169.753L166.51 26.8359H163.379L160.137 37.7985H160.025L156.782 26.8359H153.316L158.459 43.1632Z" fill="#1E2532"></path> <path d="M185.986 43.5134C190.794 43.5134 194.484 39.6648 194.484 34.9998C194.484 30.3349 190.794 26.4863 185.986 26.4863C181.178 26.4863 177.488 30.3349 177.488 34.9998C177.488 39.6648 181.178 43.5134 185.986 43.5134ZM185.986 40.2479C183.191 40.2479 180.954 37.9154 180.954 34.9998C180.954 32.0843 183.191 29.7518 185.986 29.7518C188.781 29.7518 191.018 32.0843 191.018 34.9998C191.018 37.9154 188.781 40.2479 185.986 40.2479Z" fill="#1E2532"></path> <path d="M197.492 43.1632H200.847V37.7985H203.977L206.773 43.1632H210.463L207.22 37.0988C207.22 37.0988 209.903 36.0492 209.903 32.3172C209.903 29.0517 207.779 26.8359 204.425 26.8359H197.492V43.1632ZM200.847 34.533V30.1014H204.313C205.543 30.1014 206.437 31.0343 206.437 32.3172C206.437 33.6001 205.543 34.533 204.313 34.533H200.847Z" fill="#1E2532"></path> <path d="M213.262 43.1632H223.884V39.8977H216.616V26.8359H213.262V43.1632Z" fill="#1E2532"></path> <path d="M226.344 43.1632H232.046C236.854 43.1632 240.321 39.5479 240.321 34.9995C240.321 30.4512 236.854 26.8359 232.046 26.8359H226.344V43.1632ZM229.698 39.8977V30.1014H232.046C234.842 30.1014 236.854 32.2006 236.854 34.9995C236.854 37.7985 234.842 39.8977 232.046 39.8977H229.698Z" fill="#1E2532"></path> <path fill-rule="evenodd" clip-rule="evenodd" d="M1.05803 53.8091L24.8285 67.9316C26.1411 68.7071 27.788 67.7377 27.783 66.1867L27.7031 38.0794C27.7031 37.3702 27.3288 36.7069 26.725 36.3498L2.95448 22.2272C1.64194 21.4466 -0.00497934 22.4211 1.1315e-05 23.9721L0.0798617 52.0795C0.0798617 52.7887 0.454162 53.4519 1.05803 53.8091ZM18.9523 57.6923L19.0022 39.8146L15.5686 37.789L15.5486 44.6616L9.87925 41.3146L9.89921 34.4472L6.46565 32.4216L6.41574 50.2943L9.84931 52.3198L9.86927 44.8401L15.5387 48.1871L15.5187 55.6668L18.9523 57.6923Z" fill="#1E2532"></path> <path fill-rule="evenodd" clip-rule="evenodd" d="M4.53677 19.7924L28.3272 33.9252C28.9361 34.2874 29.6897 34.2925 30.2985 33.9303L54.2636 19.7822C55.5712 19.0067 55.5762 17.0781 54.2686 16.3025L30.4782 2.16976C29.8693 1.80751 29.1157 1.80241 28.5069 2.16466L4.54176 16.3127C3.23421 17.0883 3.22921 19.0169 4.53677 19.7924ZM42.1266 18.9183L31.6861 8.48968L28.4821 10.4081L33.0735 14.4693C33.5885 14.8999 34.0953 15.3283 34.5957 15.7514C35.4533 16.4764 36.2921 17.1856 37.121 17.8622C35.3543 17.0612 33.6275 16.3112 31.6712 15.5255L24.6344 12.6938L21.2806 14.6836L25.8321 18.7653C27.2295 20.0051 28.5869 21.199 29.8346 22.2551C28.1877 21.551 26.0866 20.6531 24.0904 19.8418L17.2632 17.0612L13.8845 19.0663L31.247 25.3827L34.7005 23.3317L29.9843 18.9796C29.0632 18.107 28.1314 17.3112 27.0828 16.4158C26.8929 16.2536 26.6991 16.0881 26.5009 15.9183C28.2675 16.7653 29.8097 17.403 31.4915 18.0816L38.713 20.949L42.1266 18.9183Z" fill="#1E2532"></path> <path fill-rule="evenodd" clip-rule="evenodd" d="M58.833 52.063L58.7531 23.9302C58.7482 22.3842 57.1112 21.425 55.8037 22.1955L31.8386 36.3435C31.2298 36.7007 30.8555 37.369 30.8555 38.0884L30.9353 66.2213C30.9403 67.7672 32.5772 68.7264 33.8848 67.956L57.8498 53.8079C58.4587 53.4508 58.833 52.7824 58.833 52.063ZM51.1725 33.6277C50.1893 33.6583 48.8419 34.0205 46.9554 35.1328C43.0876 37.4134 40.7171 41.3216 40.722 44.6176C40.732 47.439 42.5486 48.1482 45.2935 47.6839C47.2798 47.3217 48.0683 47.5462 48.0733 48.7554C48.0783 50.0207 47.175 51.3932 45.4582 52.4034C43.8662 53.3422 42.2941 53.6636 41.3159 53.6381L40.5673 57.684C41.5006 57.7402 43.3621 57.2453 45.2486 56.133C49.7851 53.4595 51.8812 49.4544 51.8712 46.2043C51.8662 43.4747 50.5087 42.49 47.5942 42.939C45.4332 43.2655 44.5299 43.2553 44.5249 42.0155C44.5249 41.0359 45.3035 39.6839 46.9205 38.7298C48.5075 37.791 49.7102 37.6277 50.349 37.6277L51.1725 33.6277Z" fill="#1E2532"></path> </svg> 